<?xml version="1.0" encoding="utf-8"?>
<!-- Generator: Adobe Illustrator 19.1.0, SVG Export Plug-In . SVG Version: 6.00 Build 0)  -->
<svg version="1.1" id="Layer_1" xmlns="http://www.w3.org/2000/svg" xmlns:xlink="http://www.w3.org/1999/xlink" x="0px" y="0px"
	 viewBox="0 0 343.7 102.9" style="enable-background:new 0 0 343.7 102.9;" xml:space="preserve">
<style type="text/css">
	.st0{fill:#FFFFFF;}
	.st1{fill:#231F20;}
	.st2{fill:#DA1A32;}
	.st3{fill:#D91A32;}
	.st4{fill:#FFCE34;}
</style>
<g>
	<path class="st0" d="M224.6,27.1c1.9,0,3.6-1.2,5-3.1c1.6-2.1,2-5.9,1.1-7.4l-5.8,0c0.3,0.6,0.9,2.5,0.9,3.5c0,2.4-1.8,4.6-2.4,5
		c-0.4,0.3-0.4,0.7-0.4,0.9C223,26.7,223.5,27.1,224.6,27.1z"/>
	<path class="st0" d="M319.3,65.3c-2.4,0-4.5,1.9-4.7,4.3c-0.2,2.4,1.5,4.3,3.9,4.3c2.4,0,4.5-1.9,4.7-4.3
		C323.4,67.2,321.7,65.3,319.3,65.3z"/>
	<path class="st0" d="M326.7,33.8c-6.3,0-10.4,6.4-10.4,6.4l2.1-5.5H308l-4.8,13.6c-3.1,3.4-6.9,5.4-11.3,6.7l14-36.3h-4.6
		c0,0,0,0,0,0h-10.8c-18.3,0-31.9,11.3-31.9,22.8c0,3.7,2,6.4,4.2,7.9c1.6,0,4.3,0,6.7,0c-0.7-1-1.6-3.6-1.6-6
		c0-10.9,8.4-20.5,22.1-20.5h2.8c0,0-12.8,33.5-12.9,33.7c-23.9,1.7-31.1,8.1-31.1,15.2c0,7.6,9.5,10.3,14.1,10.3
		c15.4,0,23.4-12.8,27.5-22.5c3.8-0.8,7.3-2.1,10.3-3.9l-6.5,18.2h10.4l9.4-26.4c0,0,2.8-5.1,7.1-5.1c3,0,4.1,1,4.1,1l6.5-7.8
		C331.6,35.6,330.3,33.8,326.7,33.8z M263.6,77.4c-2.8-0.1-5.4-2-5.4-5.7c0-6.7,8.3-9.8,19.9-10.8C274.4,69.4,270.4,77.6,263.6,77.4
		z"/>
	<path class="st0" d="M194.8,33.8c-6.3,0-10.4,6.4-10.4,6.4l2.1-5.5h-10.4l-5.6,15.8c-0.3,0.5-0.5,0.9-0.7,1.4
		c-5.9,10.9-11.9,16.9-13.3,16.9c-0.6,0-0.7-0.7-0.2-1.9c0.5-1.3,3.2-9.1,8.5-23.1h-9.9c-1.7,4.4-5.4,14.8-6.9,18.8
		c-2.7,3.3-6.6,6.1-8.3,6.1c-1.8,0-1.8-1.8-1.8-2.4c0-5.7,6.6-26.7,19.2-26.7c2.9,0,5.1,0.5,6.6,1l1.9-4.8c-2.3-1.3-5.1-2-9-2
		c-14.4,0-23.4,11.9-26.9,22c-1,2.1-2.5,4.9-4,7.4c-4.7,7.7-13.1,12-18.7,11.9c-6.6-0.1-9.8-3.8-9.8-13.6
		c0-10.5,11.7-38.1,25.6-38.1c4.3,0,5.3,3.8,5.3,5.4c0,2.6-1,4.1-3,6.1h9.7c1.8-1,3.6-3.6,3.6-6.9c0-3.9-3.8-9.5-14.8-9.5
		c-24.8,0-38.8,27.6-38.8,44.1c0,16.1,11.8,18.4,19.5,18.4c8.2,0,17.2-5.1,21.9-11.5c0.7-1,1.3-2,2-3c0.8,7.3,5.7,7.5,7.9,7.5
		c3.3,0,7.6-2.2,10.7-4.8c0.4,3.4,3,4.8,6.7,4.8c3.7,0,7.6-2.9,11.2-7l-2.5,6.9h10.4l9.4-26.4c0,0,2.8-5.1,7.1-5.1c3,0,4.1,1,4.1,1
		l6.5-7.8C199.7,35.6,198.3,33.8,194.8,33.8z"/>
	<g>
		<g>
			<g>
				<path class="st0" d="M341.2,28.3c-0.1-0.6-0.4-0.9-0.8-1v-0.1c0.5-0.2,0.9-0.5,0.9-1c0-0.4-0.2-0.7-0.4-0.9
					c-0.3-0.2-0.7-0.3-1.4-0.3c-0.7,0-1.2,0.1-1.6,0.1v4.1h1v-1.7h0.5c0.5,0,0.8,0.2,0.9,0.7c0.1,0.5,0.2,0.9,0.3,1h1
					C341.4,29.2,341.3,28.9,341.2,28.3z M339.3,27h-0.5v-1.2c0.1,0,0.3-0.1,0.5-0.1c0.6,0,0.9,0.3,0.9,0.6
					C340.3,26.8,339.8,27,339.3,27z"/>
				<path class="st0" d="M339.5,23.1c-2.4,0-4.2,1.8-4.2,4.1c0,2.3,1.9,4.2,4.2,4.2c2.4,0,4.2-1.8,4.2-4.2
					C343.7,24.9,341.9,23.1,339.5,23.1z M339.5,30.5c-1.9,0-3.2-1.5-3.2-3.3c0-1.8,1.4-3.3,3.2-3.3c1.8,0,3.2,1.5,3.2,3.3
					C342.6,29,341.3,30.5,339.5,30.5z"/>
			</g>
		</g>
	</g>
	<path class="st0" d="M228.4,36.4c-1,0.8-1.9,1.9-3.1,3.5c-1.1,1.5-2.6,3.8-4.1,5.9c-5.9,8.5-12.3,17.1-14.6,19.1
		c-3.2,2.7-5.4,3.8-6.3,3.8c-0.6,0-0.7-0.7-0.2-1.9c0.5-1.3,11.7-30.8,17.1-44.8h-9.9c-1.6,4.1-11.7,30.8-14.9,39
		c-0.7,1.9-1.6,4.6-1.8,6.7c-0.2,4.3,2.5,6.2,6.8,6.2c3.3,0,7.4-2.2,10.6-4.9c0.3-0.3,0.6-0.6,1-0.9c0.8-0.8,1.5-1.6,2.2-2.4
		c0.6,4.8,5.5,8.1,11.4,8.1c7.7,0,14.9-4.7,14.9-13.3c0-8.4-5-12.6-5-17.8c0-1.4,1.2-3,2.7-3.1c2.4-0.2,4.3,1.9,4.3,1.9l4.7-5.5
		c0,0-4-3.5-11.1-1.8C231.1,34.7,229.8,35.3,228.4,36.4z M220.7,69.3c-2.7,0-5.6-2-5.6-5.8c0-1.2,0.7-2.7,1.2-3.6
		c0.7-0.9,1.4-1.7,2-2.5c2.2-3,4.4-6.5,6.3-9.1c0.9,4.6,3.3,6.6,3.3,12.6C227.9,64.3,225.3,69.3,220.7,69.3z"/>
	<g>
		<path class="st1" d="M33.7,37.2c0.1,0.1,0.2,0.1,0.3,0.1c0,0,0.1,0,0.1,0c1.8-0.9,3.6-1.3,5.4-1c0.4,0.1,0.7-0.3,0.8-0.6
			c0.1-0.4,0-0.8-0.4-1c-1.7-0.8-4.6-0.2-6.3,2.1C33.5,36.9,33.6,37.1,33.7,37.2z"/>
		<path class="st1" d="M57.9,44.6c-0.1,0-0.2,0-0.3,0c0,0-0.1-0.1-0.1-0.1c-1-1.8-2.2-3-3.9-3.9c-0.4-0.2-0.5-0.6-0.3-1
			c0.1-0.3,0.4-0.7,0.9-0.6c1.9,0.3,3.9,2.4,4,5.2C58.2,44.4,58,44.6,57.9,44.6z"/>
		<path class="st1" d="M38.7,52.4c1.3,1.7,1.9,2,2.9,2.3c0.4,0.1,0.8,0.2,1.2,0.2c0.6,0,1.4-0.1,2.5-0.5c0.6-0.2,1-0.5,1-0.9
			c0-0.3-0.3-0.5-0.8-0.5c-0.5,0-0.9,0-1.1-0.1c-0.5,0-0.5,0-1.5-0.1l-0.1,0c-0.2,0-0.4-0.1-0.6-0.1c-0.2-0.1-0.4-0.2-0.6-0.3
			l-0.1,0c-0.8-0.5-0.8-0.5-1.3-0.7c-0.2-0.1-0.5-0.3-0.9-0.6c-0.4-0.2-0.7-0.2-0.9,0C38.1,51.4,38.3,51.8,38.7,52.4z"/>
		<path class="st1" d="M37.1,40.9c-1.5-0.3-3,0-4,0.9c-0.6,0.5-0.6,1.2-0.4,1.6c0.1,0.3,0.6,0.4,0.9,0.4c0.3,0,1.6-0.1,2.8,0.3
			c1.2,0.4,1.7,1,1.9,1.1c0.2,0.1,0.6,0.3,0.8,0.4c0.3,0,0.5-0.1,0.8-0.3c0.5-0.4,0.8-1.1,0.5-1.8C39.9,42.1,38.7,41.2,37.1,40.9z"
			/>
		<path class="st1" d="M52.9,45.7c1.5,0.6,2.5,1.7,2.8,3c0.2,0.8-0.2,1.3-0.5,1.6c-0.3,0.2-0.7,0-1-0.2c-0.2-0.2-1.3-1-2.5-1.4
			c-1.2-0.4-2-0.2-2.2-0.2c-0.2,0-0.7,0-0.9-0.2c-0.2-0.2-0.4-0.4-0.5-0.7c-0.2-0.6,0-1.4,0.6-1.8C49.9,45.2,51.5,45.1,52.9,45.7z"
			/>
		<path class="st1" d="M52.9,59c-0.4-0.6-0.7-1.6-1.2-1.3c-0.3,0.1-0.2,0.5-0.3,0.8c-0.1,0.3-0.2,0.6-0.7,0.9
			c-0.4,0.2-0.8,0.5-1.2,0.6c-1,0.5-2,0.8-3.2,1.1c-2.1,0.5-4.2,0.4-6.5-0.3c-2.4-0.7-4.1-1.8-5.6-3.4c-0.8-0.8-1.5-1.7-2-2.7
			c-0.2-0.4-0.4-0.7-0.7-1.2c-0.3-0.6-0.2-0.9-0.1-1.1c0.2-0.3,0.4-0.6,0.2-0.9c-0.3-0.5-1.1,0.1-1.8,0.4c-1,0.5-1.4,0.5-1.3,1.1
			c0.1,0.6,0.9,0.1,1.1,0.7l0,0c0.5,1.8,2.2,6.7,6.3,9.4c0.8,0.6,1.8,1,2.8,1.3c0,0,0,0,0,0c0,0,0,0,0,0c1,0.3,2.1,0.4,3.1,0.4
			c4.8,0,9-3.1,10.4-4.3l0,0c0.5-0.4,0.8,0.4,1.3,0C53.8,60.2,53.5,59.9,52.9,59z"/>
	</g>
	<path class="st2" d="M59.6,1.8L60.2,37l3.4,1l-0.4-24.7c0-2.2-0.5-4.3-1.4-6.3l-2.4-5.8C59.5,1.4,59.6,1.6,59.6,1.8z"/>
	<path class="st3" d="M59.4,1.1l0-0.1l0,0C59.4,1.1,59.4,1.1,59.4,1.1z"/>
	<path class="st2" d="M0.4,22.2c-0.1-0.2-0.2-0.3-0.3-0.5l1.5,4.2c0.6,1.8,1.4,3.4,2.5,4.9l16.1,21.4l1.3-1.9L0.4,22.2z"/>
	<path class="st4" d="M85.8,53.6c0.6-2.6,1.5-5.3,2.6-8L60.2,37L59.6,1.8c0-1.8-2.4-2.5-3.4-1L36,29.6c-4.3-1.3-23.9-7.3-33.6-10.3
		c-1.7-0.5-3.1,1.5-2,2.9l21.2,28.1L1.4,79.1c-1,1.5,0.4,3.4,2.1,2.8l33.2-11.5l17.6,23.3l3.6,4.8c1.1,1.4,3.4,0.7,3.4-1.2
		l-0.6-35.2L85.8,53.6z M41.6,52.5c0.2,0.1,0.4,0.2,0.6,0.3c0.2,0.1,0.4,0.1,0.6,0.1l0.1,0c0.9,0.1,0.9,0.1,1.5,0.1
		c0.2,0,0.5,0,1.1,0.1c0.4,0,0.8,0.2,0.8,0.5c0,0.3-0.3,0.7-1,0.9c-1.1,0.3-1.8,0.5-2.5,0.5c-0.4,0-0.8-0.1-1.2-0.2
		c-1-0.3-1.6-0.6-2.9-2.3c-0.4-0.5-0.5-1-0.3-1.3c0.2-0.2,0.5-0.2,0.9,0c0.5,0.3,0.7,0.4,0.9,0.6C40.6,52,40.6,52,41.6,52.5
		L41.6,52.5z M33.6,36.7c1.7-2.3,4.6-2.9,6.3-2.1c0.4,0.2,0.5,0.7,0.4,1c-0.1,0.3-0.4,0.7-0.8,0.6c-1.9-0.2-3.7,0.1-5.4,1
		c0,0-0.1,0-0.1,0c-0.1,0-0.2,0-0.3-0.1C33.6,37.1,33.5,36.9,33.6,36.7z M33.1,41.8c1-0.9,2.5-1.3,4-0.9c1.6,0.3,2.8,1.3,3.3,2.5
		c0.3,0.7,0,1.4-0.5,1.8c-0.2,0.2-0.5,0.3-0.8,0.3c-0.3,0-0.7-0.2-0.8-0.4s-0.7-0.7-1.9-1.1c-1.2-0.4-2.5-0.3-2.8-0.3
		c-0.4,0-0.8-0.1-0.9-0.4C32.5,43,32.6,42.3,33.1,41.8z M53.4,60.6c-0.4,0.4-0.7-0.4-1.3,0l0,0c-1.4,1.2-5.6,4.3-10.4,4.3
		c-1,0-2-0.1-3.1-0.4c0,0,0,0,0,0c0,0,0,0,0,0c-1-0.3-2-0.8-2.8-1.3c-4-2.7-5.7-7.6-6.3-9.4l0,0c-0.2-0.7-0.9-0.1-1.1-0.7
		c-0.1-0.6,0.3-0.7,1.3-1.1c0.7-0.3,1.5-0.9,1.8-0.4c0.2,0.3-0.1,0.5-0.2,0.9c-0.1,0.3-0.2,0.6,0.1,1.1c0.2,0.4,0.4,0.8,0.7,1.2
		c0.6,0.9,1.2,1.8,2,2.7c1.5,1.6,3.2,2.7,5.6,3.4c2.4,0.7,4.4,0.8,6.5,0.3c1.1-0.3,2.2-0.6,3.2-1.1c0.4-0.2,0.8-0.4,1.2-0.6
		c0.6-0.3,0.7-0.6,0.7-0.9c0.1-0.4,0-0.7,0.3-0.8c0.5-0.2,0.9,0.7,1.2,1.3C53.5,59.9,53.8,60.2,53.4,60.6z M55.2,50.3
		c-0.3,0.2-0.7,0-1-0.2c-0.2-0.2-1.3-1-2.5-1.4c-1.2-0.4-2-0.2-2.2-0.2c-0.2,0-0.7,0-0.9-0.2c-0.2-0.2-0.4-0.4-0.5-0.7
		c-0.2-0.6,0-1.4,0.6-1.8c1.1-0.7,2.6-0.8,4.1-0.2c1.5,0.6,2.5,1.7,2.8,3C55.9,49.5,55.6,50.1,55.2,50.3z M57.9,44.6
		c-0.1,0-0.2,0-0.3,0c0,0-0.1-0.1-0.1-0.1c-1-1.8-2.2-3-3.9-3.9c-0.4-0.2-0.5-0.6-0.3-1c0.1-0.3,0.4-0.7,0.9-0.6
		c1.9,0.3,3.9,2.4,4,5.2C58.2,44.4,58,44.6,57.9,44.6z"/>
	<path class="st2" d="M85,57.6c0.2-1.3,0.4-2.6,0.8-4l-25.1,8.6l0.6,35.2c0,1.8-2.3,2.6-3.4,1.2L36.8,70.5L3.5,81.9
		C3.2,82,2.8,82,2.5,82l-0.2-0.1l4.3,1.6c1,0.4,2,0.4,3,0l27.3-9.4l20.3,27c2.5,3.3,7.6,1.5,7.6-2.6l-0.6-33.8L85,57.6z"/>
</g>
</svg>
